<?xml version="1.0" encoding="utf-8"?>
<!-- Generator: Adobe Illustrator 28.1.0, SVG Export Plug-In . SVG Version: 6.00 Build 0)  -->
<svg version="1.1" id="Layer_1" xmlns="http://www.w3.org/2000/svg" xmlns:xlink="http://www.w3.org/1999/xlink" x="0px" y="0px"
	 viewBox="0 0 300 300" style="enable-background:new 0 0 300 300;" xml:space="preserve">
<style type="text/css">
	.st0{opacity:0.11;fill:#808080;}
	.st1{opacity:0.33;fill:#FFFF00;}
	.st2{fill:#CCCCCC;}
</style>
<rect x="0.5" y="0.5" class="st0" width="299" height="300"/>
<path class="st1" d="M140.5,164.5c0-7.2,5-12.4,11.8-12.4c7.2,0,11.8,5.2,11.8,12.4c0,7-4.6,12.4-11.8,12.4
	C145.3,176.9,140.5,171.5,140.5,164.5z M145.5,135.9l-2.8-96h19.2l-2.8,96H145.5z"/>
<g>
	<path class="st2" d="M57.3,227.1v-32.4h4.6l10.4,16.4c2.4,3.8,4.3,7.2,5.8,10.5l0.1,0c-0.4-4.3-0.5-8.3-0.5-13.3v-13.5h3.9v32.4
		h-4.2l-10.3-16.4c-2.3-3.6-4.4-7.3-6-10.8l-0.1,0c0.2,4.1,0.3,8,0.3,13.3v13.8H57.3z"/>
	<path class="st2" d="M116.5,210.6c0,11.1-6.8,17-15,17c-8.5,0-14.5-6.6-14.5-16.4c0-10.3,6.4-17,15-17
		C110.8,194.2,116.5,201,116.5,210.6z M91.4,211.1c0,6.9,3.7,13.1,10.3,13.1c6.6,0,10.4-6.1,10.4-13.4c0-6.4-3.4-13.2-10.3-13.2
		C94.8,197.6,91.4,204,91.4,211.1z"/>
	<path class="st2" d="M132.1,194.7h4.2v28.9h13.8v3.5h-18V194.7z"/>
	<path class="st2" d="M180.5,210.6c0,11.1-6.8,17-15,17c-8.5,0-14.5-6.6-14.5-16.4c0-10.3,6.4-17,15-17
		C174.8,194.2,180.5,201,180.5,210.6z M155.4,211.1c0,6.9,3.7,13.1,10.3,13.1c6.6,0,10.4-6.1,10.4-13.4c0-6.4-3.4-13.2-10.3-13.2
		C158.9,197.6,155.4,204,155.4,211.1z"/>
	<path class="st2" d="M210.6,225.6c-1.9,0.7-5.6,1.8-9.9,1.8c-4.9,0-8.9-1.2-12.1-4.3c-2.8-2.7-4.5-7-4.5-12
		c0-9.6,6.7-16.7,17.5-16.7c3.7,0,6.7,0.8,8.1,1.5l-1,3.4c-1.7-0.8-3.9-1.4-7.2-1.4c-7.9,0-13,4.9-13,13c0,8.2,4.9,13.1,12.5,13.1
		c2.7,0,4.6-0.4,5.6-0.9v-9.6h-6.6v-3.4h10.7V225.6z"/>
	<path class="st2" d="M244.6,210.6c0,11.1-6.8,17-15,17c-8.5,0-14.5-6.6-14.5-16.4c0-10.3,6.4-17,15-17
		C238.9,194.2,244.6,201,244.6,210.6z M219.5,211.1c0,6.9,3.7,13.1,10.3,13.1c6.6,0,10.4-6.1,10.4-13.4c0-6.4-3.4-13.2-10.3-13.2
		C223,197.6,219.5,204,219.5,211.1z"/>
	<path class="st2" d="M44.5,252.3v19.2c0,7.2,3.2,10.3,7.5,10.3c4.8,0,7.9-3.2,7.9-10.3v-19.2h4.2v18.9c0,9.9-5.2,14-12.2,14
		c-6.6,0-11.6-3.8-11.6-13.8v-19.1H44.5z"/>
	<path class="st2" d="M71.4,252.7c2-0.3,4.7-0.6,8-0.6c4.1,0,7.2,1,9.1,2.7c1.8,1.5,2.8,3.9,2.8,6.8c0,2.9-0.9,5.2-2.5,6.9
		c-2.2,2.4-5.8,3.6-9.9,3.6c-1.2,0-2.4,0-3.4-0.3v13h-4.2V252.7z M75.5,268.3c0.9,0.2,2.1,0.3,3.5,0.3c5,0,8.1-2.4,8.1-6.9
		c0-4.3-3-6.3-7.6-6.3c-1.8,0-3.2,0.1-3.9,0.3V268.3z"/>
	<path class="st2" d="M96.9,252.3h4.2v28.9h13.8v3.5h-18V252.3z"/>
	<path class="st2" d="M145.3,268.2c0,11.1-6.8,17-15,17c-8.5,0-14.5-6.6-14.5-16.4c0-10.3,6.4-17,15-17
		C139.6,251.8,145.3,258.6,145.3,268.2z M120.2,268.7c0,6.9,3.7,13.1,10.3,13.1c6.6,0,10.4-6.1,10.4-13.4c0-6.4-3.4-13.2-10.3-13.2
		C123.7,255.2,120.2,261.6,120.2,268.7z"/>
	<path class="st2" d="M155.3,274.5l-3.4,10.2h-4.3l11-32.4h5l11,32.4h-4.5l-3.5-10.2H155.3z M165.9,271.2l-3.2-9.3
		c-0.7-2.1-1.2-4-1.7-5.9H161c-0.5,1.9-1,3.9-1.6,5.9l-3.2,9.4H165.9z"/>
	<path class="st2" d="M179.4,252.8c2.5-0.4,5.6-0.7,8.9-0.7c6,0,10.3,1.4,13.1,4c2.9,2.6,4.6,6.4,4.6,11.6c0,5.3-1.6,9.6-4.7,12.6
		c-3,3-8,4.7-14.3,4.7c-3,0-5.5-0.1-7.6-0.4V252.8z M183.6,281.4c1.1,0.2,2.6,0.2,4.2,0.2c8.9,0,13.8-5,13.8-13.7
		c0-7.6-4.3-12.5-13.1-12.5c-2.2,0-3.8,0.2-4.9,0.4V281.4z"/>
	<path class="st2" d="M228.2,269.5h-12.6v11.7h14v3.5h-18.2v-32.4h17.5v3.5h-13.3v10.2h12.6V269.5z"/>
	<path class="st2" d="M235,252.8c2.5-0.4,5.6-0.7,8.9-0.7c6,0,10.3,1.4,13.1,4c2.9,2.6,4.6,6.4,4.6,11.6c0,5.3-1.6,9.6-4.7,12.6
		c-3,3-8,4.7-14.3,4.7c-3,0-5.5-0.1-7.6-0.4V252.8z M239.2,281.4c1.1,0.2,2.6,0.2,4.2,0.2c8.9,0,13.8-5,13.8-13.7
		c0-7.6-4.3-12.5-13.1-12.5c-2.2,0-3.8,0.2-4.9,0.4V281.4z"/>
</g>
</svg>
